# xmcd
#
# Track frame offsets:
#	150
#	10480
#	22725
#	38570
#	50237
#	71177
#	91342
#	110962
#	125975
#	146117
#	161427
#	178735
#
# Disc length: 2590 seconds
#
# Revision: 1
# Processed by: cddbd v1.5.2PL0 Copyright (c) Steve Scherf et al.
# Submitted via: audiograbber 1.83.01
#
DISCID=b10a1c0c
DTITLE=Various  Artists - Italo Dance Hits
DYEAR=1900
DGENRE=Musica Italiana
TTITLE0=Ivan Cattaneo - Il ballo del mattone 
TTITLE1=Caterina Caselli - Nessuno mi puo' giudicare
TTITLE2=Renato Carosone - Torero
TTITLE3=Gemelle Kessler - La notte e' piccola
TTITLE4=Enrico Ruggeri - Tango delle donne facili
TTITLE5=Loredana Berte - In alto mare
TTITLE6=Francesco Baccini and Ladri di Biciclette - Sotto questo sole
TTITLE7=Giuni Russo - Un'estate al mare
TTITLE8=Unberto Tozzi - Tu
TTITLE9=Ivan Cattaneo - La banmbolina che fa no no
TTITLE10=Heather Parisi - Cicale
TTITLE11=Renato Carosone - Tu vo'  fa' l'americano
EXTD=
EXTT0=
EXTT1=
EXTT2=
EXTT3=
EXTT4=
EXTT5=
EXTT6=
EXTT7=
EXTT8=
EXTT9=
EXTT10=
EXTT11=
PLAYORDER=
